<?xml version="1.0" encoding="utf-8"?>
<!-- Generator: Adobe Illustrator 21.0.2, SVG Export Plug-In . SVG Version: 6.00 Build 0)  -->
<svg version="1.1" id="レイヤー_1" xmlns="http://www.w3.org/2000/svg" xmlns:xlink="http://www.w3.org/1999/xlink" x="0px"
	 y="0px" viewBox="0 0 274.6 167.5" style="enable-background:new 0 0 274.6 167.5;" xml:space="preserve">
<style type="text/css">
	.st0{fill:#0B0C0E;}
	.st1{fill:#F9F9F9;}
</style>
<g>
	<path class="st0" d="M274.6,2c-1,1.2-3.1,1-3.2,3.3c-0.1,2.4,2.4,2.2,3,3.7c-0.1,0.2-0.1,0.3-0.2,0.4c-3.2,2-3.9,4.6-1.7,7.8
		c0.7,1.1,0.2,1.8-0.8,2.2c-0.5,0.2-1,0.6-1.5,0.8c-1.4,0.5-2.1,1.5-2.4,3c-0.6,2.7-1.3,5.4-1.9,8.1c-0.2,0.8-0.6,1.7,0.7,2
		c0.7,0.2,0.3,0.7,0,1.1c-1.3,1.6-2.8,3.2-4,4.9c-4,6.1-8.2,12.1-8.4,19.8c-0.1,1.6-0.5,3.2,0.2,4.8c0.8,1.7,0.7,3.3-0.1,5
		c-0.4,0.8-0.7,1.7,0,2.4c1.7,1.8,1.3,3.4-0.2,5c-0.4,0.4-0.7,0.9-0.7,1.8c2.8,0.8,2.1,2.8,1.4,4.8c-0.4,1.2-0.6,2.4-1.1,3.6
		c-0.6,1.5-0.5,2.9,0,4.5c1.6,5.7,3.6,11.3,5.3,17c4.1,13.3,4.3,26.8,1.3,40.4c-1.1,4.8-2.8,9.4-5.7,13.4c-4.8,6.6-9,7.5-16,3.4
		c-3.8-2.2-7.2-5.1-10.5-8c-5.2-4.7-10.1-9.7-15.1-14.6c-3.1-3-6.1-6.1-9.5-8.7c-1.6-1.3-3.3-2.3-5.5-1.9c-1.3,0.2-2.2-0.4-2.9-1.4
		c-1.1-1.5-2.4-3-3.6-4.5c-1.3,2.1-1.3,2.1-3.6,1.5c-4.3-1.1-8.5-2.2-12.8-3.4c-2.3-0.7-4.7-1-7.1-0.6c-0.7,0.1-1.7,0.5-2.1-0.2
		c-0.8-1.5-2.1-1.1-3.3-1c-1.9,0.1-3.8,0.2-5.7,0.3c-0.8,0.1-1.6,0.1-2-0.7c-0.8-1.3-1.7-1.5-3-0.6c-0.5,0.3-1.3,0.2-2,0.2
		c-2.2,0-4.4,0-6.6-0.2c-4.2-0.4-8.2-0.1-12,2c-1.1,0.6-2.1,0.5-3.3,0.1c-2-0.7-4.1-1.1-6-1.9c-2-0.8-3.9-0.6-5.8,0.2
		c-1.5,0.7-3.1,1.4-4.7,1.6c-0.7-0.7,0.2-1.7-0.8-2.3c-2.6,0.8-5.2,1.7-7.8,2.6c-1.1,0.4-2.2,0.7-3.4,0.4c-4.7-1.3-9.1-0.5-13.3,1.7
		c-0.3,0.2-0.7,0.3-1.1,0.4c-1,0.5-1.7,0.3-2.4-0.6c-2.1-2.7-2.2-2.7-5.1-0.7c-2.1,1.5-4.2,3-6.3,4.6c-5.9,4.5-11.7,9-17.6,13.5
		c-6.8,5.1-13.6,10-21,14.1c-2.9,1.6-5.8,3-8.9,3.9c-3.8,1.2-7,0.3-9.8-2.4c-2.8-2.7-4.4-6-5.5-9.6c-1.9-6.2-2.2-12.6-2-19.1
		c0.5-14,3.1-27.6,7.6-40.8c0.3-0.9,0.7-1.8,0.5-2.8c-1-5.7-0.2-11.3,1.2-16.8c0.8-3.1,1.5-6.1,2.4-9.2c0.4-1.4,0.2-2.3-1.2-3.1
		c-1.6-0.9-3-2-4.5-3c0.4-1.2,2-1,2.3-2.3c-2-3.3-3.9-6.8-6.2-9.9c-3.3-4.5-4.9-9.2-4.3-14.7c0.4-3.7-0.3-7-3-9.7
		c-0.1-0.1-0.1-0.2-0.1-0.3C2,16,3.2,16.2,4.3,15.6c-0.8-0.8-1.6-1-2.3-1.5c-0.7-0.4-1.7-0.4-2-1.5c1.7-0.7,3.3-1.3,5.2-2.1
		c-2-2-3.7-3.8-5.2-5.3c1.7-1.8,3.2-3.4,4.6-5C5.7,0.1,6.8,0,7.8,0c87.4,0,174.7,0,262.1,0c1,0,2.1,0.1,3.1,0.2
		C273.5,0.9,274.6,1,274.6,2z M167.3,40.2c0,0-0.1,0.1-0.1,0.2c0,0,0.2,0,0.2,0l-0.2,0c-0.1-0.1-0.1-0.2-0.2-0.3c0-0.1,0-0.1,0-0.2
		c0-0.4,0-0.8,0-1.2c-2.2-2.3-2.4-5.4-2.4-8.3c-0.1-9.1,5.8-15.6,14.9-16.8c2.8-0.3,5.6-0.4,8.3,0.3c7.6,2,12.8,9.1,12.5,17.2
		c-0.3,8-6.2,14.9-14,16.4c-2,0.4-4.1,0.6-5.5,0.7c2.5,1.1,5.6,0.6,8.7-0.2c7.1-1.9,12.2-7.8,12.9-15.2c0.3-2.7,0.4-5.4-0.2-8
		c-1.7-8.1-7.3-13.4-16.2-14.4c-16.3-1.9-23.3,9.7-22.7,20.5c0.1,2.7,0.9,5.3,2.5,7.5c0.4,0.6,0.8,0.8,1.4,0.2
		c-0.3,0.4-0.4,0.8-0.1,1.2C167.1,39.9,167.2,40,167.3,40.2z M97.6,38.9c5.8-6.4,5.4-16.7-0.9-22.9C88.8,8.2,74,8.5,66.6,16.8
		c-4.9,5.5-6.3,12.1-3.9,19c2.4,6.9,7.9,10.3,14.8,11.8c0.2,0,0.4,0,0.6,0c0.1,0,0.3-0.1,0.5-0.3c-1.6-0.7-3.3-1.3-4.8-2
		c-8-4.1-11.2-11.8-8.3-20.3c2.1-6.1,6.7-9.4,12.8-10.6c3.5-0.7,7.1-0.5,10.5,0.6c8.4,2.6,12.5,10.2,10.3,18.8
		c-0.5,1.8-1.3,3.4-1.9,5.1c0,0.2,0,0.5,0,0.7c0,0-0.2-0.1-0.2-0.1l0.1,0.1C97.3,39.5,97.4,39.2,97.6,38.9z M86.5,38.3
		c0-1.4-1.3-2.8-2.8-2.7c-1.3,0-2.6,1.3-2.7,2.6c-0.1,1.5,1.2,2.7,2.8,2.7C85.3,40.8,86.5,39.7,86.5,38.3z M181.7,36.6
		c-1.6-0.1-2.8,1-2.8,2.5c0,1.5,1.3,2.8,2.7,2.7c1.4,0,2.5-1.2,2.6-2.6C184.2,37.8,183.1,36.7,181.7,36.6z M187.3,35.9
		c-0.1,0.8,0.3,1.2,1.1,1.3c0.8,0.1,1.4-1.4,2.4-0.2c0.1,0.1,0.2-0.3,0.2-0.3c-1.5,0.3-1.3-1.8-2.5-1.8
		C187.8,34.9,187.4,35.3,187.3,35.9z M89.5,35.4c0.1,0.7,0.6,0.9,1.3,0.8c0.7-0.1,1.1-0.5,1.1-1.1c0-0.8-0.5-1.2-1.3-1.2
		C89.8,34.2,89.4,34.6,89.5,35.4z M93,35.8c-0.3,0-0.4,0.3-0.3,0.5c0,0.1,0.3,0.2,0.5,0.2c0.1,0,0.2-0.2,0.3-0.4
		C93.3,36,93.1,35.8,93,35.8z"/>
	<path class="st1" d="M167.3,40.2c0,0-0.1,0.1-0.1,0.2c0,0,0.2,0,0.2,0l-0.2,0c-0.1-0.1-0.1-0.2-0.2-0.3c0-0.1,0-0.1,0-0.2
		c0-0.4,0-0.8,0-1.2c-2.2-2.3-2.4-5.4-2.4-8.3c-0.1-9.1,5.8-15.6,14.9-16.8c2.8-0.3,5.6-0.4,8.3,0.3c7.6,2,12.8,9.1,12.5,17.2
		c-0.3,8-6.2,14.9-14,16.4c-2,0.4-4.1,0.6-5.5,0.7c2.5,1.1,5.6,0.6,8.7-0.2c7.1-1.9,12.2-7.8,12.9-15.2c0.3-2.7,0.4-5.4-0.2-8
		c-1.7-8.1-7.3-13.4-16.2-14.4c-16.3-1.9-23.3,9.7-22.7,20.5c0.1,2.7,0.9,5.3,2.5,7.5c0.4,0.6,0.8,0.8,1.4,0.2
		c-0.3,0.4-0.4,0.8-0.1,1.2C167.1,39.9,167.2,40,167.3,40.2z"/>
	<path class="st1" d="M97.6,38.9c5.8-6.4,5.4-16.7-0.9-22.9C88.8,8.2,74,8.5,66.6,16.8c-4.9,5.5-6.3,12.1-3.9,19
		c2.4,6.9,7.9,10.3,14.8,11.8c0.2,0,0.4,0,0.6,0c0.1,0,0.3-0.1,0.5-0.3c-1.6-0.7-3.3-1.3-4.8-2c-8-4.1-11.2-11.8-8.3-20.3
		c2.1-6.1,6.7-9.4,12.8-10.6c3.5-0.7,7.1-0.5,10.5,0.6c8.4,2.6,12.5,10.2,10.3,18.8c-0.5,1.8-1.3,3.4-1.9,5.1c0,0.2,0,0.5,0,0.7
		c0,0-0.2-0.1-0.2-0.1l0.1,0.1C97.3,39.5,97.4,39.2,97.6,38.9z"/>
	<path class="st1" d="M86.5,38.3c0-1.4-1.3-2.8-2.8-2.7c-1.3,0-2.6,1.3-2.7,2.6c-0.1,1.5,1.2,2.7,2.8,2.7
		C85.3,40.8,86.5,39.7,86.5,38.3z"/>
	<path class="st1" d="M181.7,36.6c-1.6-0.1-2.8,1-2.8,2.5c0,1.5,1.3,2.8,2.7,2.7c1.4,0,2.5-1.2,2.6-2.6
		C184.2,37.8,183.1,36.7,181.7,36.6z"/>
	<path class="st1" d="M187.3,35.9c-0.1,0.8,0.3,1.2,1.1,1.3c0.8,0.1,1.4-1.4,2.4-0.2c0.1,0.1,0.2-0.3,0.2-0.3
		c-1.5,0.3-1.3-1.8-2.5-1.8C187.8,34.9,187.4,35.3,187.3,35.9z"/>
	<path class="st1" d="M89.5,35.4c0.1,0.7,0.6,0.9,1.3,0.8c0.7-0.1,1.1-0.5,1.1-1.1c0-0.8-0.5-1.2-1.3-1.2
		C89.8,34.2,89.4,34.6,89.5,35.4z"/>
	<path class="st1" d="M93,35.8c-0.3,0-0.4,0.3-0.3,0.5c0,0.1,0.3,0.2,0.5,0.2c0.1,0,0.2-0.2,0.3-0.4C93.3,36,93.1,35.8,93,35.8z"/>
</g>
</svg>
